<svg width="1299" height="410" viewBox="0 0 1299 405" fill="none" xmlns="http://www.w3.org/2000/svg">
<circle cx="1096.5" cy="202.5" r="202" fill="black" stroke="white" stroke-width="5"/>
<path d="M1248.05 296.89H1206.74C1194.5 296.89 1185.41 294.37 1179.47 289.33C1173.71 284.29 1170.83 276.1 1170.83 264.76V153.79C1170.83 142.27 1173.71 134.08 1179.47 129.22C1185.41 124.18 1194.5 121.66 1206.74 121.66H1281.26V143.26H1198.1C1196.3 143.26 1195.4 144.16 1195.4 145.96V272.59C1195.4 274.39 1196.3 275.29 1198.1 275.29H1258.04C1259.84 275.29 1260.74 274.39 1260.74 272.59V220.75L1263.44 224.53H1231.58V204.28H1284.23V264.76C1284.23 276.1 1281.26 284.29 1275.32 289.33C1269.56 294.37 1260.47 296.89 1248.05 296.89Z" fill="#d4d4d4"/>
<path d="M1151.59 295H1127.56L1116.49 248.02L1119.73 250.72H1045.48L1048.99 248.02L1036.57 295H1014.16L1054.39 149.2C1056.37 142.18 1058.35 136.78 1060.33 133C1062.49 129.22 1065.37 126.61 1068.97 125.17C1072.75 123.55 1078.24 122.83 1085.44 123.01L1110.28 123.55L1151.59 295ZM1075.99 146.77L1052.77 232.9L1050.61 230.2H1115.41L1113.25 232.9L1092.19 144.34H1078.69C1077.79 144.34 1077.16 144.52 1076.8 144.88C1076.44 145.24 1076.17 145.87 1075.99 146.77Z" fill="#d4d4d4"/>
<path d="M976.91 295H952.88V140.56L956.93 144.34H910.49V123.55H1019.57V144.34H973.13L976.91 140.56V295Z" fill="#d4d4d4"/>
<path d="M848.04 210.22L881.52 123.55H905.82L872.07 209.14C869.55 215.8 867.12 220.93 864.78 224.53C862.62 227.95 859.65 230.38 855.87 231.82C852.27 233.08 846.87 233.71 839.67 233.71H835.89C828.87 233.71 823.38 232.99 819.42 231.55C815.46 229.93 812.31 227.41 809.97 223.99C807.63 220.39 805.2 215.44 802.68 209.14L769.2 123.28H794.58L828.33 210.22C829.05 212.02 830.13 212.92 831.57 212.92H844.8C846.42 212.92 847.5 212.02 848.04 210.22ZM849.39 295H825.36V219.13H849.39V295Z" fill="#d4d4d4"/>
<path d="M673.125 295H649.095V123.55L721.185 122.47C733.785 122.29 743.235 125.17 749.535 131.11C756.015 136.87 759.255 145.6 759.255 157.3V190.51C759.255 200.77 756.555 208.87 751.155 214.81C745.935 220.75 738.015 224.26 727.395 225.34L727.665 220.21C732.345 221.29 735.945 223.36 738.465 226.42C741.165 229.48 743.595 234.07 745.755 240.19L764.925 295H740.625L718.215 229.39C717.855 228.13 717.405 227.32 716.865 226.96C716.325 226.42 715.335 226.15 713.895 226.15H667.995L673.125 221.56V295ZM673.125 138.67V209.95L669.075 205.63H731.175C733.515 205.63 734.685 204.46 734.685 202.12V146.77C734.685 144.61 733.515 143.53 731.175 143.53H669.345L673.125 138.67Z" fill="#d4d4d4"/>
<path d="M585.773 143.26H521.513C519.713 143.26 518.813 144.16 518.813 145.96V272.59C518.813 274.39 519.713 275.29 521.513 275.29H585.773C587.573 275.29 588.473 274.39 588.473 272.59V145.96C588.473 144.16 587.573 143.26 585.773 143.26ZM494.243 264.76V153.79C494.243 142.27 497.123 134.08 502.883 129.22C508.823 124.18 517.913 121.66 530.153 121.66H577.133C589.373 121.66 598.373 124.18 604.133 129.22C610.073 134.08 613.043 142.27 613.043 153.79V264.76C613.043 276.1 610.073 284.29 604.133 289.33C598.373 294.37 589.373 296.89 577.133 296.89H530.153C517.913 296.89 508.823 294.37 502.883 289.33C497.123 284.29 494.243 276.1 494.243 264.76Z" fill="#d4d4d4"/>
<path d="M444.207 123.55C450.147 123.55 454.287 124.81 456.627 127.33C459.147 129.85 460.407 134.08 460.407 140.02V295H437.187V150.82H442.587L395.337 241.54H381.297L336.747 153.52H340.797V295H319.467V123.55H332.697C337.197 123.55 340.437 124.27 342.417 125.71C344.577 127.15 346.647 129.85 348.627 133.81L393.177 220.48H386.697L436.917 123.55H444.207Z" fill="#d4d4d4"/>
<path d="M292.496 295H195.566V123.55H291.146V144.34H215.546L219.596 140.56V201.31L215.546 197.53H286.556V218.05H215.546L219.596 214.27V277.99L215.546 274.21H292.496V295Z" fill="#d4d4d4"/>
<path d="M142.83 123.55C148.77 123.55 152.91 124.81 155.25 127.33C157.77 129.85 159.03 134.08 159.03 140.02V295H135.81V150.82H141.21L93.9599 241.54H79.9198L35.3698 153.52H39.4198V295H18.0898V123.55H31.3198C35.8198 123.55 39.0598 124.27 41.0398 125.71C43.1998 127.15 45.2698 129.85 47.2498 133.81L91.7999 220.48H85.3199L135.54 123.55H142.83Z" fill="#d4d4d4"/>
</svg>
