<svg width="1299" height="405" viewBox="0 0 1299 405" fill="none" xmlns="http://www.w3.org/2000/svg">
<circle cx="1096.5" cy="202.5" r="202.5" fill="black"/>
<path d="M1248.05 296.89H1206.74C1194.5 296.89 1185.41 294.37 1179.47 289.33C1173.71 284.29 1170.83 276.1 1170.83 264.76V153.79C1170.83 142.27 1173.71 134.08 1179.47 129.22C1185.41 124.18 1194.5 121.66 1206.74 121.66H1281.26V143.26H1198.1C1196.3 143.26 1195.4 144.16 1195.4 145.96V272.59C1195.4 274.39 1196.3 275.29 1198.1 275.29H1258.04C1259.84 275.29 1260.74 274.39 1260.74 272.59V220.75L1263.44 224.53H1231.58V204.28H1284.23V264.76C1284.23 276.1 1281.26 284.29 1275.32 289.33C1269.56 294.37 1260.47 296.89 1248.05 296.89Z" fill="white"/>
<path d="M1151.59 295H1127.56L1116.49 248.02L1119.73 250.72H1045.48L1048.99 248.02L1036.57 295H1014.16L1054.39 149.2C1056.37 142.18 1058.35 136.78 1060.33 133C1062.49 129.22 1065.37 126.61 1068.97 125.17C1072.75 123.55 1078.24 122.83 1085.44 123.01L1110.28 123.55L1151.59 295ZM1075.99 146.77L1052.77 232.9L1050.61 230.2H1115.41L1113.25 232.9L1092.19 144.34H1078.69C1077.79 144.34 1077.16 144.52 1076.8 144.88C1076.44 145.24 1076.17 145.87 1075.99 146.77Z" fill="white"/>
<path d="M976.911 295H952.881V140.56L956.931 144.34H910.491V123.55H1019.57V144.34H973.131L976.911 140.56V295Z" fill="white"/>
<path d="M848.041 210.22L881.521 123.55H905.821L872.071 209.14C869.551 215.8 867.121 220.93 864.781 224.53C862.621 227.95 859.651 230.38 855.871 231.82C852.271 233.08 846.871 233.71 839.671 233.71H835.891C828.871 233.71 823.381 232.99 819.421 231.55C815.461 229.93 812.311 227.41 809.971 223.99C807.631 220.39 805.201 215.44 802.681 209.14L769.201 123.28H794.581L828.331 210.22C829.051 212.02 830.131 212.92 831.571 212.92H844.801C846.421 212.92 847.501 212.02 848.041 210.22ZM849.391 295H825.361V219.13H849.391V295Z" fill="black"/>
<path d="M673.125 295H649.095V123.55L721.185 122.47C733.785 122.29 743.235 125.17 749.535 131.11C756.015 136.87 759.255 145.6 759.255 157.3V190.51C759.255 200.77 756.555 208.87 751.155 214.81C745.935 220.75 738.015 224.26 727.395 225.34L727.665 220.21C732.345 221.29 735.945 223.36 738.465 226.42C741.165 229.48 743.595 234.07 745.755 240.19L764.925 295H740.625L718.215 229.39C717.855 228.13 717.405 227.32 716.865 226.96C716.325 226.42 715.335 226.15 713.895 226.15H667.995L673.125 221.56V295ZM673.125 138.67V209.95L669.075 205.63H731.175C733.515 205.63 734.685 204.46 734.685 202.12V146.77C734.685 144.61 733.515 143.53 731.175 143.53H669.345L673.125 138.67Z" fill="black"/>
<path d="M585.774 143.26H521.514C519.714 143.26 518.814 144.16 518.814 145.96V272.59C518.814 274.39 519.714 275.29 521.514 275.29H585.774C587.574 275.29 588.474 274.39 588.474 272.59V145.96C588.474 144.16 587.574 143.26 585.774 143.26ZM494.244 264.76V153.79C494.244 142.27 497.124 134.08 502.884 129.22C508.824 124.18 517.914 121.66 530.154 121.66H577.134C589.374 121.66 598.374 124.18 604.134 129.22C610.074 134.08 613.044 142.27 613.044 153.79V264.76C613.044 276.1 610.074 284.29 604.134 289.33C598.374 294.37 589.374 296.89 577.134 296.89H530.154C517.914 296.89 508.824 294.37 502.884 289.33C497.124 284.29 494.244 276.1 494.244 264.76Z" fill="black"/>
<path d="M444.207 123.55C450.147 123.55 454.287 124.81 456.627 127.33C459.147 129.85 460.407 134.08 460.407 140.02V295H437.187V150.82H442.587L395.337 241.54H381.297L336.747 153.52H340.797V295H319.467V123.55H332.697C337.197 123.55 340.437 124.27 342.417 125.71C344.577 127.15 346.647 129.85 348.627 133.81L393.177 220.48H386.697L436.917 123.55H444.207Z" fill="black"/>
<path d="M292.497 295H195.567V123.55H291.147V144.34H215.547L219.597 140.56V201.31L215.547 197.53H286.557V218.05H215.547L219.597 214.27V277.99L215.547 274.21H292.497V295Z" fill="black"/>
<path d="M142.83 123.55C148.77 123.55 152.91 124.81 155.25 127.33C157.77 129.85 159.03 134.08 159.03 140.02V295H135.81V150.82H141.21L93.9601 241.54H79.9201L35.3701 153.52H39.4201V295H18.0901V123.55H31.3201C35.8201 123.55 39.0601 124.27 41.0401 125.71C43.2001 127.15 45.2701 129.85 47.2501 133.81L91.8001 220.48H85.3201L135.54 123.55H142.83Z" fill="black"/>
</svg>
